<?xml version="1.0" standalone="no"?><!DOCTYPE svg PUBLIC "-//W3C//DTD SVG 1.1//EN" "http://www.w3.org/Graphics/SVG/1.1/DTD/svg11.dtd"><svg t="1604403215536" class="icon" viewBox="0 0 1024 1024" version="1.1" xmlns="http://www.w3.org/2000/svg" p-id="14803" xmlns:xlink="http://www.w3.org/1999/xlink" width="200" height="200"><defs><style type="text/css"></style></defs><path d="M311.842 534.71l-37.89-118.688-34.21 118.688h72.1zM578.7 458.64c0-30.358-16.58-43.085-54.82-44.136-11.675-0.292-22.534 0-22.534 0v89.965h19.732c37.714-0.059 57.506-15.296 57.622-45.83z m222.665 0c0-30.358-16.58-43.085-54.82-44.136-11.676-0.292-22.535 0-22.535 0v89.906h19.85c37.597 0 57.388-15.237 57.505-45.77z" fill="#bfbfbf" p-id="14804"></path><path d="M952.63 322.846c0-14.712-2.336-19.558-18.157-19.558h-99.247s0-161.48-0.35-229.553C834.465 26.563 809.712 0.642 763.533 0.467Q512.496-0.35 261.46 0.467c-45.83 0-68.831 24.929-69.006 71.341v231.48s-75.078 0.701-102.342 0c-13.428-0.35-18.915 3.445-18.857 17.515q0.642 182.323 0 364.705c0 15.938 5.838 19.149 20.433 19.149h101.174s-0.408 172.632 0 247.476c0.059 48.515 23.703 71.867 71.283 71.867H754.31c56.688 0 80.624-24.053 80.682-81.733V704.598h96.037c16.054 0 21.6-3.035 21.484-20.258q-0.876-180.63 0.117-361.494zM259.24 103.334V84.068h506.337l-0.642 219.279H259.182z m242.28 536.111H447.87v-22.943c-0.292-36.897 0-73.794 0-110.924 0-35.962 0.35-130.481 0.35-130.481s77.472-0.934 105.611 0.467c50.675 2.452 74.728 24.053 80.274 70.057a88.68 88.68 0 0 1-62.468 94.11c-19.207 6.305-70.057 5.079-70.057 5.079v57.739c-0.35 15.062-0.058 36.896-0.058 36.896z m-293.713 0h-60.424l95.978-264.173h64.978l94.635 264.173h-55.929l-23.352-64.569H230.75z m304.456 348.476a29.95 29.95 0 1 1 29.95-29.891 29.891 29.891 0 0 1-30.008 29.832z m252.73-93.76H259.3v-189.33h505.636z m22.069-354.722a266.1 266.1 0 0 1-45.596 5.313h-17.981v94.518h-51.083s-0.35-98.722-0.35-135.56c0-35.904 0.35-108.647 0.35-108.647v-19.79h19.032s56.63-0.877 84.71 0.408c50.675 2.335 78.056 26.972 82.084 72.042s-25.104 81.09-71.166 91.716z" p-id="14805" fill="#bfbfbf"></path></svg>