<?xml version="1.0" standalone="no"?><!DOCTYPE svg PUBLIC "-//W3C//DTD SVG 1.1//EN" "http://www.w3.org/Graphics/SVG/1.1/DTD/svg11.dtd"><svg t="1604390189385" class="icon" viewBox="0 0 1024 1024" version="1.1" xmlns="http://www.w3.org/2000/svg" p-id="8295" xmlns:xlink="http://www.w3.org/1999/xlink" width="200" height="200"><defs><style type="text/css"></style></defs><path d="M510.127543 950.857143C271.959771 950.857143 78.891886 755.887543 78.891886 515.3792S271.959771 79.901257 510.127543 79.901257 941.3632 274.870857 941.3632 515.3792 748.295314 950.857143 510.127543 950.857143z m-95.831772-701.615543h-47.908571v96.782629h47.908571v-96.782629z m95.831772 0h-47.908572v96.782629h47.908572v-96.782629z m95.831771 0h-47.9232v96.782629h47.9232v-96.782629z m47.9232 194.7648v-37.507657c0-20.041143-16.091429-36.293486-35.9424-36.293486H354.4064c-19.850971 0-35.9424 16.252343-35.9424 36.293486V636.342857c0 66.808686 53.628343 120.963657 119.793371 120.963657h95.831772c58.280229 0 106.730057-42.071771 117.467428-97.762743a108.075886 108.075886 0 0 0 98.143086-107.885714 108.105143 108.105143 0 0 0-95.817143-107.651657z m0 166.912V492.397714a60.357486 60.357486 0 0 1 47.908572 59.260343c0 29.257143-20.5824 53.6576-47.908572 59.260343z m-131.774171 98.011429h-71.870172c-46.314057 0-83.850971-37.917257-83.850971-84.6848V442.792229c0-13.355886 10.722743-24.195657 23.946971-24.195658h191.663543c13.238857 0 23.9616 10.839771 23.9616 24.195658v181.4528c0 46.767543-37.536914 84.6848-83.850971 84.6848z" fill="#1296db" p-id="8296"></path></svg>