<?xml version="1.0" standalone="no"?><!DOCTYPE svg PUBLIC "-//W3C//DTD SVG 1.1//EN" "http://www.w3.org/Graphics/SVG/1.1/DTD/svg11.dtd"><svg t="1604923065491" class="icon" viewBox="0 0 1024 1024" version="1.1" xmlns="http://www.w3.org/2000/svg" p-id="2851" xmlns:xlink="http://www.w3.org/1999/xlink" width="200" height="200"><defs><style type="text/css"></style></defs><path d="M512 84.48C275.968 84.48 84.48 276.48 84.48 512s191.488 427.52 427.52 427.52 427.52-192 427.52-427.52-191.488-427.52-427.52-427.52z m38.4 651.264c-10.752 10.24-24.064 15.36-38.4 15.36h-1.024c-14.848 0-28.672-5.632-38.912-15.872s-15.872-24.064-15.872-38.912c0-15.872 5.632-28.672 16.384-38.912 9.728-10.24 23.04-15.36 38.912-15.36h13.312v1.536c10.24 2.048 19.456 6.656 26.112 13.824 10.24 10.24 15.872 23.04 15.872 38.912 0 15.36-5.632 28.672-16.384 39.424z m80.384-236.544c-3.584 4.608-12.8 13.824-50.176 46.592-9.216 7.68-16.384 16.896-20.992 26.112-5.12 9.728-7.68 19.968-7.68 32.256v23.04H463.872V604.16c0-24.576 4.096-44.544 12.8-60.928 8.704-17.408 30.208-41.472 67.584-73.728l9.216-10.24c9.216-11.264 13.312-22.528 13.312-33.792 0-16.384-4.608-29.184-13.312-38.4-8.704-8.704-22.016-13.312-39.424-13.312-21.504 0-36.864 6.144-45.568 18.944-8.704 11.776-13.312 28.672-13.312 51.2v13.312h-87.04v-13.312c0-45.056 13.312-81.92 39.936-108.544 26.624-27.136 64-40.96 110.08-40.96 40.448 0 73.728 11.264 98.816 33.792 26.112 22.528 38.912 53.76 38.4 92.672 0 30.72-8.192 57.344-24.576 78.336z" p-id="2852" fill="#bfbfbf"></path></svg>