<?xml version="1.0" standalone="no"?><!DOCTYPE svg PUBLIC "-//W3C//DTD SVG 1.1//EN" "http://www.w3.org/Graphics/SVG/1.1/DTD/svg11.dtd"><svg t="1604402304215" class="icon" viewBox="0 0 1024 1024" version="1.1" xmlns="http://www.w3.org/2000/svg" p-id="11011" xmlns:xlink="http://www.w3.org/1999/xlink" width="200" height="200"><defs><style type="text/css"></style></defs><path d="M651.35 492.97l187.22-162.047-55.807-64.512-268.16 232.064-273.664-232.32-55.211 65.024 328.619 279.04A297.259 297.259 0 0 0 469.333 768c0 45.824 10.326 89.173 28.758 128H128a42.667 42.667 0 0 1-42.667-42.667V170.667A42.667 42.667 0 0 1 128 128h768a42.667 42.667 0 0 1 42.667 42.667V522.88A297.301 297.301 0 0 0 768 469.333c-41.387 0-80.81 8.406-116.65 23.638z m61.44 390.571a128 128 0 0 0 170.709-170.709L712.832 883.499z m-60.331-60.373l170.709-170.667a128 128 0 0 0-170.71 170.71zM768 981.333a213.333 213.333 0 1 1 0-426.666 213.333 213.333 0 0 1 0 426.666z" p-id="11012" fill="#bfbfbf"></path></svg>