<?xml version="1.0" standalone="no"?><!DOCTYPE svg PUBLIC "-//W3C//DTD SVG 1.1//EN" "http://www.w3.org/Graphics/SVG/1.1/DTD/svg11.dtd"><svg t="1604402223587" class="icon" viewBox="0 0 1024 1024" version="1.1" xmlns="http://www.w3.org/2000/svg" p-id="6158" xmlns:xlink="http://www.w3.org/1999/xlink" width="200" height="200"><defs><style type="text/css"></style></defs><path d="M269.50656 136.22272c36.2496 0 70.32832 14.11584 95.95392 39.74656 25.63072 25.63072 39.74656 59.70432 39.74656 95.9488v135.70048H269.50656c-36.2496 0-70.3232-14.11584-95.95392-39.74656-25.6256-25.63072-39.74144-59.70432-39.74144-95.95904 0-36.24448 14.11584-70.31296 39.74144-95.9488 25.63072-25.6256 59.70432-39.74144 95.95392-39.74144z m0-72.36096c-114.90816 0-208.06144 93.14816-208.06144 208.05632 0 114.91328 93.14816 208.06656 208.06144 208.06656h161.1776a46.87872 46.87872 0 0 0 46.88384-46.87872v-161.1776c0-114.91328-93.15328-208.06656-208.06144-208.06656" p-id="6159" fill="#bfbfbf"></path><path d="M430.68416 487.66464h-161.1776c-118.95808 0-215.74144-96.78336-215.74144-215.74656 0-118.95808 96.77824-215.73632 215.74144-215.73632s215.74656 96.78336 215.74656 215.74656V433.1008c-0.00512 30.08512-24.47872 54.56384-54.56896 54.56384z m-161.1776-416.12288c-110.4896 0-200.38144 89.88672-200.38144 200.37632 0 110.49472 89.89184 200.38656 200.38144 200.38656h161.1776c21.61664 0 39.20384-17.5872 39.20384-39.19872v-161.1776c0-110.49472-89.89184-200.38656-200.38144-200.38656z m143.38048 343.7568H269.50656c-38.2976 0-74.30144-14.91456-101.38624-41.99424-27.07968-27.07968-41.99424-63.08864-41.99424-101.38624 0-38.29248 14.91456-74.2912 41.99424-101.376 27.0848-27.07968 63.08864-41.99424 101.38624-41.99424 38.30272 0 74.30656 14.91456 101.38624 41.99424 27.0848 27.0848 41.99936 63.08352 41.99936 101.376v143.38048zM269.50656 143.90272c-34.19648 0-66.34496 13.31712-90.52672 37.49376-24.17664 24.18176-37.49376 56.33024-37.49376 90.51648 0 34.19648 13.31712 66.34496 37.49376 90.52672 24.18176 24.17664 56.33024 37.49376 90.52672 37.49376h128.02048V271.91808c0-34.19136-13.31712-66.33472-37.49888-90.51648-24.17664-24.18176-56.32512-37.49888-90.5216-37.49888zM269.50656 621.2096l135.70048 0.00512v135.69536c0 36.2496-14.11584 70.32832-39.74656 95.95392-25.6256 25.63072-59.70432 39.74144-95.95392 39.74144-36.24448 0-70.3232-14.11072-95.95392-39.74144-25.6256-25.64096-39.73632-59.70432-39.73632-95.95392s14.11072-70.31808 39.73632-95.9488c25.63072-25.63072 59.70432-39.75168 95.95392-39.75168z m0-72.36096c-114.90816 0-208.06144 93.14816-208.06144 208.06144 0 114.9184 93.14816 208.06656 208.06144 208.06656s208.06656-93.14304 208.06656-208.06144v-161.17248a46.87872 46.87872 0 0 0-46.88384-46.88896H269.50656v-0.00512" p-id="6160" fill="#bfbfbf"></path><path d="M269.50656 972.65664c-118.95808 0-215.74144-96.78336-215.74144-215.74656s96.77824-215.74144 215.74144-215.74144h161.1776c30.08512 0 54.56384 24.47872 54.56384 54.56896v161.17248c0 118.9632-96.77824 215.74656-215.74144 215.74656z m0-416.128c-110.4896 0-200.38144 89.89184-200.38144 200.38144 0 110.49472 89.89184 200.38656 200.38144 200.38656 110.49472 0 200.38656-89.89184 200.38656-200.38144v-161.17248c0-21.62176-17.5872-39.20896-39.20384-39.20896H269.50656z m0 343.7568c-38.2976 0-74.30656-14.90944-101.38624-41.98912-27.07968-27.08992-41.98912-63.09376-41.98912-101.38624 0-38.2976 14.90944-74.30144 41.98912-101.38112 27.0848-27.0848 63.09376-41.99936 101.38624-41.99936l143.38048 0.00512v143.37536c0 38.30272-14.91456 74.31168-41.99936 101.38624-27.07456 27.07968-63.0784 41.98912-101.38112 41.98912z m0-271.39584c-34.19136 0-66.33984 13.32224-90.52672 37.49888-24.17664 24.17664-37.48864 56.32512-37.48864 90.5216 0 34.19136 13.31712 66.33984 37.48864 90.52672 24.17664 24.17664 56.32512 37.48864 90.5216 37.48864 34.2016 0 66.35008-13.31712 90.52672-37.48864 24.18176-24.17664 37.49888-56.32512 37.49888-90.52672v-128.01536l-128.02048-0.00512z" p-id="6161" fill="#bfbfbf"></path><path d="M754.49856 136.22272c36.23936 0 70.30784 14.11584 95.95392 39.74656 25.62048 25.63072 39.73632 59.70432 39.73632 95.95904 0 36.24448-14.11584 70.31808-39.74656 95.9488-25.63584 25.63072-59.70432 39.74656-95.94368 39.74656h-135.7056V271.91808c0-36.24448 14.12096-70.31296 39.74656-95.9488 25.63584-25.63072 59.70432-39.74656 95.95904-39.74656z m0-72.36608c-114.90816 0-208.06656 93.15328-208.06656 208.06144v161.1776c0 25.89184 20.98688 46.88896 46.87872 46.88896h161.17248c114.90816 0 208.06656-93.14816 208.06656-208.06656 0.01024-114.90816-93.1328-208.06144-208.0512-208.06144" p-id="6162" fill="#bfbfbf"></path><path d="M754.48832 487.66464h-161.17248c-30.08512 0-54.55872-24.47872-54.55872-54.56896v-161.1776c0-118.95808 96.78336-215.74144 215.74656-215.74144 57.63072 0 111.80544 22.44096 152.55552 63.19104 40.74496 40.74496 63.1808 94.9248 63.1808 152.5504-0.00512 118.9632-96.78848 215.74656-215.75168 215.74656z m0.01024-416.128c-110.49472 0-200.38656 89.89184-200.38656 200.38144v161.1776c0 21.62176 17.5872 39.20896 39.19872 39.20896h161.17248c110.49472 0 200.38656-89.89184 200.38656-200.38656 0-53.52448-20.8384-103.84384-58.68544-141.69088s-88.16128-58.69056-141.68576-58.69056z m0 343.76192h-143.3856V271.91808c0-38.28736 14.91456-74.2912 41.99424-101.376 27.0848-27.07968 63.09376-41.99424 101.39136-41.99424 38.28736 0 74.2912 14.91456 101.38624 41.99424 27.07456 27.08992 41.984 63.09376 41.984 101.39136s-14.91456 74.29632-41.99424 101.376c-27.0848 27.07968-63.08864 41.98912-101.376 41.98912z m-128.0256-15.36h128.0256c34.18624 0 66.3296-13.31712 90.51648-37.49376 24.18176-24.18176 37.49376-56.32512 37.49376-90.51648s-13.31712-66.34496-37.48352-90.52672c-24.19712-24.17664-56.3456-37.49376-90.52672-37.49376-34.19648 0-66.34496 13.31712-90.53184 37.49376-24.18176 24.18688-37.49376 56.33024-37.49376 90.51648v128.02048z" p-id="6163" fill="#bfbfbf"></path><path d="M754.49856 621.21472c36.23936 0 70.30784 14.11584 95.95392 39.74656 25.62048 25.63072 39.73632 59.6992 39.73632 95.95392 0 36.24448-14.11584 70.3232-39.74656 95.9488-25.63584 25.63072-59.70432 39.74144-95.95392 39.74144-36.24448 0-70.31296-14.11072-95.9488-39.74144-25.6256-25.64096-39.74656-59.70432-39.74656-95.9488V621.2096l135.7056 0.00512z m0-72.36608h-161.18272a46.87872 46.87872 0 0 0-46.87872 46.88384v161.1776c0 114.91328 93.15328 208.06144 208.05632 208.06144 114.92352 0 208.06656-93.14304 208.06656-208.06144 0-114.90816-93.14304-208.06144-208.06144-208.06144" p-id="6164" fill="#bfbfbf"></path><path d="M754.48832 972.65664c-118.95296 0-215.73632-96.77824-215.73632-215.74144v-161.1776c0-30.08512 24.4736-54.56384 54.55872-54.56384h161.18272c57.63072 0 111.80544 22.44096 152.55552 63.19104 40.74496 40.74496 63.1808 94.9248 63.1808 152.55552 0.00512 118.95296-96.77824 215.73632-215.74144 215.73632z m-161.17248-416.128c-21.61664 0-39.19872 17.5872-39.19872 39.20384v161.1776c0 110.4896 89.89184 200.38144 200.37632 200.38144 110.49472 0 200.38656-89.89184 200.38656-200.38144 0-53.52448-20.8384-103.84896-58.68544-141.696s-88.1664-58.69056-141.69088-58.69056h-161.18784z m161.17248 343.7568c-38.29248 0-74.30144-14.90944-101.38112-41.98912-27.07968-27.09504-41.99424-63.09888-41.99424-101.38112V613.5296h143.3856c38.28736 0.00512 74.2912 14.91968 101.38624 41.99936 27.07456 27.0848 41.984 63.08864 41.984 101.38624s-14.91456 74.30656-41.99424 101.38112c-27.07968 27.07968-63.08864 41.98912-101.38624 41.98912z m-128.01536-271.39584v128.0256c0 34.18112 13.31712 66.32448 37.49376 90.5216 24.18176 24.17664 56.33024 37.48864 90.5216 37.48864 34.19648 0 66.34496-13.31712 90.52672-37.48864s37.49376-56.32 37.49376-90.5216c0-34.19648-13.31712-66.33984-37.48352-90.52672-24.19712-24.18176-56.3456-37.49376-90.52672-37.49376l-128.0256-0.00512z" p-id="6165" fill="#bfbfbf"></path></svg>