<?xml version="1.0" standalone="no"?><!DOCTYPE svg PUBLIC "-//W3C//DTD SVG 1.1//EN" "http://www.w3.org/Graphics/SVG/1.1/DTD/svg11.dtd"><svg t="1604403151626" class="icon" viewBox="0 0 1024 1024" version="1.1" xmlns="http://www.w3.org/2000/svg" p-id="12149" xmlns:xlink="http://www.w3.org/1999/xlink" width="200" height="200"><defs><style type="text/css"></style></defs><path d="M635.853819 370.849236c8.983605 0 17.875113 0.656963 26.703175 1.62501-23.994484-111.738897-143.476739-194.770985-279.867082-194.770985-152.473647 0-277.349749 103.932094-277.349749 235.914034 0 76.150354 41.527812 138.715295 110.969371 187.249685l-27.733645 83.435271 96.957239-48.609091c34.70236 6.844895 62.534242 13.888312 97.156784 13.888312 8.704243 0 17.34811-0.415462 25.910113-1.096984-5.436826-18.538215-8.562003-37.963637-8.562003-58.107419C400.038022 469.195102 504.058121 370.849236 635.853819 370.849236zM475.289913 292.214295c30.033014 0 49.889247 19.739577 49.889247 49.747008 0 29.890774-19.856233 49.934273-49.889247 49.934273-29.881564 0-59.84397-20.043499-59.84397-49.934273C415.445944 311.954895 445.408349 292.214295 475.289913 292.214295zM284.841374 391.894551c-29.90817 0-60.039421-20.043499-60.039421-49.934273 0-30.006408 30.131251-49.747008 60.039421-49.747008 29.882588 0 49.747008 19.739577 49.747008 49.747008C334.588381 371.852076 314.723961 391.894551 284.841374 391.894551z" p-id="12150" fill="#bfbfbf"></path><path d="M918.981155 609.856725c0-110.895693-110.963231-201.304795-235.597833-201.304795-131.98808 0-235.926314 90.410126-235.926314 201.304795 0 111.069655 103.939257 201.2567 235.926314 201.2567 27.603685 0 55.466266-6.938016 83.21833-13.888312l76.100212 41.670052L821.831534 769.56003C877.484042 727.795834 918.981155 672.390967 918.981155 609.856725zM596.479043 604.287893c-21.287839 0-42.727127-21.135366-42.727127-42.766013 0-21.24793 21.440311-42.698474 42.727127-42.698474 32.307823 0 53.442166 21.449521 53.442166 42.698474C649.920186 583.15355 628.786867 604.287893 596.479043 604.287893zM760.990864 604.287893c-21.134343 0-42.469254-21.135366-42.469254-42.766013 0-21.24793 21.335934-42.698474 42.469254-42.698474 31.992645 0 53.451376 21.449521 53.451376 42.698474C814.44224 583.15355 792.983509 604.287893 760.990864 604.287893z" p-id="12151" fill="#bfbfbf"></path></svg>