<?xml version="1.0" standalone="no"?><!DOCTYPE svg PUBLIC "-//W3C//DTD SVG 1.1//EN" "http://www.w3.org/Graphics/SVG/1.1/DTD/svg11.dtd"><svg t="1605099692118" class="icon" viewBox="0 0 1586 1024" version="1.1" xmlns="http://www.w3.org/2000/svg" p-id="3496" xmlns:xlink="http://www.w3.org/1999/xlink" width="309.765625" height="200"><defs><style type="text/css"></style></defs><path d="M855.313611 371.957781l0-281.671725-177.163636 0 0 78.365181L531.205628 0 0 609.650579l135.568342 0 0 414.349421 267.148188 0 32.977435 0 0-39.071048L435.693965 719.702003l190.489272 0 0 265.226949 0 39.071048 32.977435 0 267.680889 0L926.841561 609.650579l135.572398 0L855.313611 371.957781zM887.767809 570.574123l0 414.354829-228.609841 0L659.157969 719.702003l0-32.908482-32.977435-0.068954 0 0.060841-223.396402-0.060841 0 0-0.068954 0 0 298.204384-228.071732 0L174.643446 570.574123l-88.796115 0 445.356945-511.099546 186.015395 213.504929 0-143.622403 99.01478 0 0 257.251306 160.326769 183.965713L887.767809 570.574123z" p-id="3497" fill="#e6e6e6"></path></svg>