<?xml version="1.0" standalone="no"?><!DOCTYPE svg PUBLIC "-//W3C//DTD SVG 1.1//EN" "http://www.w3.org/Graphics/SVG/1.1/DTD/svg11.dtd"><svg t="1605100326645" class="icon" viewBox="0 0 1024 1024" version="1.1" xmlns="http://www.w3.org/2000/svg" p-id="2903" xmlns:xlink="http://www.w3.org/1999/xlink" width="200" height="200"><defs><style type="text/css"></style></defs><path d="M961.422222 250.311111L534.755556 5.688889c-5.688889-5.688889-11.377778-5.688889-17.066667 0L91.022222 250.311111c-5.688889 0-5.688889 5.688889-5.688889 17.066667v489.244444c0 5.688889 5.688889 11.377778 11.377778 17.066667l426.666667 244.622222h22.755555l426.666667-244.622222c5.688889-5.688889 11.377778-11.377778 11.377778-17.066667V267.377778c-11.377778-11.377778-17.066667-17.066667-22.755556-17.066667z m-699.733333-56.888889l386.844444 221.866667-119.466666 73.955555-392.533334-221.866666 125.155556-73.955556z m108.088889-62.577778l386.844444 221.866667-68.266666 45.511111-392.533334-227.555555 73.955556-39.822223z m335.644444 295.822223l68.266667-39.822223v136.533334H739.555556c-5.688889 0-11.377778 0-11.377778 5.688889l-22.755556 22.755555V426.666667zM529.066667 39.822222l386.844444 221.866667-17.066667 11.377778L796.444444 335.644444 403.911111 113.777778 529.066667 39.822222zM119.466667 295.822222l392.533333 227.555556V967.111111l-386.844444-221.866667V295.822222z m813.511111 449.422222L546.133333 967.111111V523.377778L671.288889 455.111111v153.6c0 5.688889 5.688889 17.066667 11.377778 17.066667h5.688889c5.688889 0 11.377778 0 11.377777-5.688889l45.511111-56.888889h45.511112c5.688889 0 11.377778 0 11.377777-5.688889 5.688889-5.688889 5.688889-5.688889 5.688889-11.377778v-170.666666l125.155556-68.266667v438.044444z" p-id="2904" fill="#dbdbdb"></path></svg>