<?xml version="1.0" standalone="no"?><!DOCTYPE svg PUBLIC "-//W3C//DTD SVG 1.1//EN" "http://www.w3.org/Graphics/SVG/1.1/DTD/svg11.dtd"><svg t="1605100612719" class="icon" viewBox="0 0 1024 1024" version="1.1" xmlns="http://www.w3.org/2000/svg" p-id="4282" xmlns:xlink="http://www.w3.org/1999/xlink" width="200" height="200"><defs><style type="text/css"></style></defs><path d="M728.782 646.108c-50.647 0-91.845 41.177-91.845 91.771 0 50.641 41.196 91.865 91.845 91.865 50.665 0 91.932-41.226 91.932-91.865 0-50.596-41.267-91.771-91.932-91.771z m0 136.318c-24.561 0-44.503-19.987-44.503-44.547 0-24.515 19.942-44.501 44.503-44.501 24.603 0 44.57 19.986 44.57 44.501 0.002 24.56-19.967 44.547-44.57 44.547z m243.024-92.514c-3.509-18.14-15.187-29.957-30.143-29.957h-2.12c-28.673 0-51.982-23.267-51.982-51.933 0-7.526 3.233-16.714 4.526-19.669 7.106-15.97 1.661-35.591-14.13-46.485l-60.841-33.653c-4.801-2.076-9.927-3.142-15.308-3.142-11.034 0-21.93 4.48-29.148 11.959-7.597 7.848-27.68 23.912-41.573 23.912-13.989 0-34.25-16.386-41.821-24.326-7.271-7.666-18.262-12.233-29.41-12.233-5.329 0-10.387 1.016-14.933 3.002l-1.151 0.459-61.904 33.977-1.458 0.972c-14.447 9.971-19.916 29.592-12.881 45.425 0.489 1.106 4.643 11.171 4.643 19.806 0 28.666-23.355 51.934-52.048 51.934h-2.4c-14.656 0-26.335 11.816-29.799 30.006-0.527 2.77-5.126 27.931-5.126 48.287 0 20.313 4.599 45.425 5.126 48.238 3.464 18.191 15.143 29.914 30.144 29.914h2.057c28.666 0 52.048 23.362 52.048 51.983 0 7.521-3.299 16.756-4.547 19.662-7.131 15.929-1.662 35.55 14.078 46.487l59.669 33.238c4.757 2.076 9.927 3.139 15.327 3.139 11.219 0 22.202-4.659 29.43-12.512 7.359-7.939 28.227-25.435 42.471-25.435 14.402 0 35.032 17.494 42.789 25.988 7.227 7.987 18.28 12.696 29.596 12.696 5.33 0 10.455-1.016 16.549-3.738l60.338-33.333 1.477-0.924c14.403-9.971 19.85-29.589 12.786-45.424-0.414-1.153-4.57-11.216-4.57-19.848 0-28.621 23.311-51.983 51.982-51.983h2.444c14.588 0 26.31-11.723 29.729-29.866 0.045-0.276 5.172-26.912 5.172-48.287-0.006-20.355-4.623-45.516-5.088-48.336z m-45.285 80.053c-48.979 6.367-86.323 48.193-86.323 98.421 0 11.585 2.813 22.617 5.26 30.098l-43.553 24.006c-3.903-3.833-10.156-9.558-17.911-15.28-19.275-14.265-37.88-21.562-55.397-21.562-17.355 0-35.849 7.158-54.98 21.19-7.643 5.584-13.806 11.124-17.797 14.958l-41.617-23.269c2.495-7.479 5.284-18.558 5.284-30.143 0-50.228-37.319-92.055-86.297-98.421-1.274-8.124-3.024-21.283-3.024-31.716 0-10.525 1.75-23.729 3.024-31.807 48.978-6.418 86.297-48.243 86.297-98.42 0-11.544-2.789-22.576-5.261-30.01l44.96-24.648c3.88 3.692 10.156 9.186 17.823 14.678 18.88 13.436 37.07 20.268 54.078 20.268 16.83 0 34.88-6.739 53.646-19.897 7.614-5.398 13.753-10.755 17.7-14.354l43.024 23.867c-2.445 7.476-5.26 18.511-5.26 30.1 0 50.177 37.346 92.002 86.323 98.42 1.293 8.262 2.997 21.421 2.997 31.807 0.003 10.384-1.703 23.493-2.996 31.714zM105.618 904.394V852.41c0-176.803 136.459-322.495 310.289-338.885l-0.07-0.045h0.464a338.63 338.63 0 0 1 32.334-1.573c1.644 0 3.253 0.096 4.916 0.141 38.408-2.998 96.574-12.047 126.973-39.146l14.887-11.54c58.146-45.426 91.475-113.146 91.475-185.947 0-130.365-106.915-236.449-238.294-236.449-131.403 0-238.318 106.084-238.318 236.449 0 72.803 33.353 140.521 91.474 185.947l14.887 11.54-17.542 6.973C144.256 541.268 44.198 687.514 44.198 852.409v82.403c0 16.756 13.753 30.42 30.697 30.42H523.63a308.651 308.651 0 0 1-37.141-60.84l-380.871 0.002z m166.074-628.982c0-96.807 79.357-175.605 176.899-175.605 97.543 0 176.899 78.8 176.899 175.605 0 96.852-79.356 175.698-176.899 175.698-97.542 0.002-176.899-78.846-176.899-175.698z" p-id="4283" fill="#cdcdcd"></path></svg>