<?xml version="1.0" standalone="no"?><!DOCTYPE svg PUBLIC "-//W3C//DTD SVG 1.1//EN" "http://www.w3.org/Graphics/SVG/1.1/DTD/svg11.dtd"><svg t="1604390112136" class="icon" viewBox="0 0 1024 1024" version="1.1" xmlns="http://www.w3.org/2000/svg" p-id="5455" xmlns:xlink="http://www.w3.org/1999/xlink" width="200" height="200"><defs><style type="text/css"></style></defs><path d="M450.138353 452.216471a99.267765 99.267765 0 0 0 99.328 99.177411 99.267765 99.267765 0 0 0 99.328-99.177411 99.267765 99.267765 0 0 0-99.328-99.177412 99.267765 99.267765 0 0 0-99.328 99.177412z" fill="#0095FF" p-id="5456"></path><path d="M269.522824 0.180706A103.303529 103.303529 0 0 0 166.008471 103.303529v228.080942H99.689412a39.393882 39.393882 0 0 0 0 78.757647h66.319059v76.047058H99.689412a39.393882 39.393882 0 0 0 0 78.787765h66.319059v76.047059H99.689412a39.393882 39.393882 0 0 0 0 78.787765h66.319059v-14.305883 215.130353a103.243294 103.243294 0 0 0 103.514353 103.152941h590.004705a103.303529 103.303529 0 0 0 103.514353-103.152941V103.303529A103.243294 103.243294 0 0 0 859.557647 0.180706H269.522824zM357.315765 437.910588c0-152.335059 99.388235-203.535059 192.150588-203.535059s192.150588 48.158118 192.150588 203.535059c0 155.407059-152.365176 351.653647-192.150588 351.653647-39.785412 0-192.150588-199.318588-192.150588-351.653647z" fill="#0095FF" p-id="5457"></path></svg>