<?xml version="1.0" standalone="no"?><!DOCTYPE svg PUBLIC "-//W3C//DTD SVG 1.1//EN" "http://www.w3.org/Graphics/SVG/1.1/DTD/svg11.dtd"><svg t="1604390161484" class="icon" viewBox="0 0 1024 1024" version="1.1" xmlns="http://www.w3.org/2000/svg" p-id="7028" xmlns:xlink="http://www.w3.org/1999/xlink" width="200" height="200"><defs><style type="text/css"></style></defs><path d="M291.56854 6.49106c-17.77986 0-32.31419 14.53433-32.314191 32.31419V196.072346c0 17.77986 14.53433 32.31419 32.314191 32.314191 4.65663 0 9.101595-1.058325 13.087952-2.857478V9.31326c-4.021635-1.799153-8.431323-2.8222-13.087952-2.8222zM407.13763 165.592586V96.342853h-0.740827v69.778896c0.211665-0.211665 0.493885-0.317498 0.740827-0.529163z" fill="#1296db" p-id="7029"></path><path d="M438.710993 6.49106c-17.77986 0-32.31419 14.53433-32.31419 32.31419v57.537603h0.740827V196.072346c0 17.63875 14.322665 32.03197 31.926138 32.243636 4.51552-0.070555 8.819375-1.023048 12.6999-2.751645v-216.251077c-3.986358-1.799153-8.396045-2.8222-13.052675-2.8222z" fill="#1296db" p-id="7030"></path><path d="M438.710993 228.421814c0.14111 0 0.246943-0.070555 0.388053-0.070555-17.603473-0.211665-31.926138-14.604885-31.926138-32.243635v-30.47976c-0.246943 0.211665-0.529163 0.317498-0.740828 0.493885v29.950597c-0.070555 17.77986 14.499053 32.349468 32.278913 32.349468zM569.202467 157.125986c5.115238-1.97554 10.618528-3.10442 16.36876-3.316085-5.750233 0.246943-11.2888 1.26999-16.36876 3.316085zM587.264547 153.527681c4.621353 0 8.784098 1.446378 13.017397 2.645813v-0.246943c-4.198023-1.199435-8.360768-2.434148-12.946842-2.434147 0 0-0.035278 0.035278-0.070555 0.035277zM559.959762 162.699831c-1.587488 1.093603-3.492473 1.728598-4.93885 2.96331V96.342853h-0.14111v69.778896c1.55221-1.340545 3.38664-2.293038 5.07996-3.421918zM559.959762 162.699831c2.96331-2.046095 5.891343-4.198023 9.242705-5.573845-3.421918 1.340545-6.244118 3.563028-9.242705 5.573845zM587.193992 153.492404c-0.56444 0-1.058325 0.317498-1.622765 0.317497 0.599718-0.035278 1.093603-0.317498 1.69332-0.317497-0.035278 0.035278-0.035278 0-0.070555 0z" fill="#1296db" p-id="7031"></path><path d="M600.281944 155.926551V9.31326c-4.021635-1.799153-8.431323-2.857478-13.087952-2.857477-17.77986 0-32.349468 14.53433-32.349468 32.31419V96.307576h0.14111v69.320288c1.446378-1.234713 3.351363-1.869708 4.93885-2.96331-1.69332 1.12888-3.52775 2.081373-5.07996 3.421917v29.950598c0 17.77986 14.53433 32.31419 32.349468 32.31419 4.65663 0 9.066318-1.058325 13.087952-2.857477V156.138216c-4.268578-1.164158-8.396045-2.610535-13.017397-2.645812-0.599718 0-1.093603 0.28222-1.69332 0.317497 0.56444-0.035278 1.058325-0.317498 1.622765-0.317497h0.14111c4.586075 0 8.784098 1.234713 12.946842 2.434147z m-31.079477 1.199435c-2.328315 0.952493-4.444965 2.25776-6.49106 3.66886 2.046095-1.4111 4.127468-2.716368 6.49106-3.66886 3.880525-1.55221 8.007993-2.53998 12.311847-2.998587-4.303855 0.493885-8.431323 1.481655-12.311847 2.998587z" fill="#1296db" p-id="7032"></path><path d="M685.759328 201.258139c0.317498-6.34995 1.587488-12.452958 4.09219-17.956248-2.504703 5.50329-3.739415 11.57102-4.09219 17.956248zM780.585248 183.266614c2.575258 5.6444 3.95108 11.923795 4.198023 18.48541-0.28222-6.561615-1.622765-12.805733-4.198023-18.48541zM768.661453 167.109519c3.316085 3.069143 5.820788 6.843835 8.219658 10.689082-2.434148-3.915803-4.868295-7.61994-8.219658-10.689082zM693.696765 177.622214c2.363593-3.774693 4.833018-7.514108 8.078548-10.512695-3.316085 3.033865-5.714955 6.702725-8.078548 10.512695zM735.218383 253.398284c-27.551728 0-49.847108-22.29538-49.917663-49.81183 0 0.035278-0.035278 0.070555-0.035277 0.105832 0 27.587005 22.365935 49.95294 49.917662 49.952941 27.587005 0 49.95294-22.365935 49.952941-49.952941 0-0.035278-0.035278-0.070555-0.035278-0.14111-0.035278 27.51645-22.330658 49.847108-49.882385 49.847108z" fill="#1296db" p-id="7033"></path><path d="M735.218383 6.738003c-17.77986 0-32.31419 14.53433-32.31419 32.31419V196.319289c0 17.77986 14.53433 32.31419 32.31419 32.31419 4.65663 0 9.066318-1.058325 13.087952-2.857477V9.560203c-4.021635-1.799153-8.431323-2.8222-13.087952-2.8222z" fill="#1296db" p-id="7034"></path><path d="M619.649292 166.897854v-1.234713M789.263513 96.342853h-21.73094v69.320288c0.458608 0.388053 0.670273 1.023048 1.093603 1.446378 3.351363 3.069143 5.820788 6.808558 8.219657 10.689082 2.11665 3.38664 4.51552 6.808558 5.714955 10.759638 3.704138 12.029628 3.069143 25.787853-2.504702 37.11193-3.66886 7.443553-9.17215 13.934613-15.910153 18.76763-8.431323 5.997175-18.62652 9.242705-28.962828 9.242705-16.756813 0-32.666965-8.642988-41.803837-22.683432-4.409688-6.738003-7.690495-14.781273-8.18438-22.895098-0.246943-3.915803 0.42333-8.007993 0.98777-11.85324 0.670273-4.51552 2.010818-8.960485 4.09219-13.052675 2.8222-5.609123 6.808558-11.747408 11.465187-16.015985 0.458608-0.42333 0.670273-1.058325 1.12888-1.446378V96.342853h-83.219623v69.320288h-0.035277v1.234713c10.477418 8.995763 17.49764 21.660385 17.49764 36.54749 0 27.587005-22.365935 49.95294-49.917663 49.95294-27.587005 0-49.917663-22.365935-49.917663-49.95294 0-15.09877 7.020223-28.151445 17.603473-37.323595V96.342853h-83.078514v70.272781c10.15992 9.136873 16.862645 22.048438 16.862646 36.82971 0 27.587005-22.365935 49.95294-49.952941 49.95294-27.587005 0-49.917663-22.365935-49.917663-49.95294 0-15.09877 7.020223-28.151445 17.603473-37.323595V96.342853H323.88273v69.778896c10.58325 9.17215 17.603473 22.224825 17.603473 37.323595 0 27.587005-22.365935 49.95294-49.917663 49.95294-27.587005 0-49.95294-22.365935-49.952941-49.95294 0-15.09877 7.0555-28.151445 17.603473-37.323595V96.342853h-24.83536c-52.175423 0-94.861198 42.685775-94.861198 94.861198v732.113963c0 52.175423 42.685775 94.861198 94.861198 94.861198h554.844524c52.175423 0 94.861198-42.685775 94.861198-94.861198V191.204051c0.035278-52.175423-42.650498-94.861198-94.825921-94.861198z m-42.368278 773.000586H276.787267c-18.309023 0-33.090295-14.81655-33.090295-33.090295s14.81655-33.090295 33.090295-33.090296h470.107968c18.273745 0 33.090295 14.81655 33.090296 33.090296 0.035278 18.273745-14.81655 33.090295-33.090296 33.090295z m0-137.300031H276.787267c-18.309023 0-33.090295-14.81655-33.090295-33.090295s14.81655-33.090295 33.090295-33.090296h470.107968c18.273745 0 33.090295 14.81655 33.090296 33.090296s-14.81655 33.090295-33.090296 33.090295z m0-137.335309H276.787267c-18.309023 0-33.090295-14.81655-33.090295-33.090295s14.81655-33.090295 33.090295-33.090295h470.107968c18.273745 0 33.090295 14.81655 33.090296 33.090295s-14.81655 33.090295-33.090296 33.090295z m0-137.335308H276.787267c-18.309023 0-33.090295-14.81655-33.090295-33.090295s14.81655-33.090295 33.090295-33.090296h470.107968c18.273745 0 33.090295 14.81655 33.090296 33.090296 0.035278 18.273745-14.81655 33.090295-33.090296 33.090295z" fill="#1296db" p-id="7035"></path></svg>