<?xml version="1.0" standalone="no"?><!DOCTYPE svg PUBLIC "-//W3C//DTD SVG 1.1//EN" "http://www.w3.org/Graphics/SVG/1.1/DTD/svg11.dtd"><svg t="1605100558148" class="icon" viewBox="0 0 1024 1024" version="1.1" xmlns="http://www.w3.org/2000/svg" p-id="3421" xmlns:xlink="http://www.w3.org/1999/xlink" width="200" height="200"><defs><style type="text/css"></style></defs><path d="M789.333333 448V426.666667h42.666667v25.6c12.8 4.266667 25.6 8.533333 38.4 17.066666l17.066667-17.066666 29.866666 29.866666-17.066666 17.066667c8.533333 12.8 12.8 25.6 17.066666 38.4h21.333334v42.666667h-25.6c-4.266667 12.8-8.533333 25.6-17.066667 38.4l17.066667 17.066666-29.866667 29.866667-17.066667-17.066667c-12.8 8.533333-25.6 12.8-38.4 17.066667v17.066667h-42.666666v-25.6c-12.8-4.266667-25.6-8.533333-38.4-17.066667l-17.066667 17.066667-29.866667-29.866667 17.066667-17.066667c-8.533333-12.8-12.8-25.6-17.066667-38.4H682.666667v-42.666666h25.6c4.266667-12.8 8.533333-25.6 17.066666-38.4l-17.066666-17.066667 29.866666-29.866667 17.066667 17.066667c8.533333-4.266667 21.333333-8.533333 34.133333-12.8zM640 384c-8.533333 93.866667-93.866667 170.666667-192 170.666667S268.8 477.866667 256 384V341.333333c8.533333-93.866667 93.866667-170.666667 192-170.666666s179.2 76.8 192 170.666666h85.333333v42.666667h-85.333333z m-42.666667 0H298.666667c8.533333 72.533333 72.533333 128 149.333333 128s136.533333-55.466667 149.333333-128zM298.666667 341.333333h298.666666c-8.533333-72.533333-72.533333-128-149.333333-128S311.466667 268.8 298.666667 341.333333z m384 392.533334L588.8 640H307.2L213.333333 733.866667V810.666667h469.333334v-76.8z m42.666666-17.066667V853.333333H170.666667v-136.533333L290.133333 597.333333h311.466667l123.733333 119.466667z m85.333334-98.133333c34.133333 0 64-29.866667 64-64s-29.866667-64-64-64-64 29.866667-64 64 29.866667 64 64 64z m0-42.666667c-12.8 0-21.333333-8.533333-21.333334-21.333333s8.533333-21.333333 21.333334-21.333334 21.333333 8.533333 21.333333 21.333334-8.533333 21.333333-21.333333 21.333333z" fill="#cdcdcd" p-id="3422"></path></svg>