<?xml version="1.0" standalone="no"?><!DOCTYPE svg PUBLIC "-//W3C//DTD SVG 1.1//EN" "http://www.w3.org/Graphics/SVG/1.1/DTD/svg11.dtd"><svg t="1605100498498" class="icon" viewBox="0 0 1024 1024" version="1.1" xmlns="http://www.w3.org/2000/svg" p-id="3184" xmlns:xlink="http://www.w3.org/1999/xlink" width="200" height="200"><defs><style type="text/css"></style></defs><path d="M763.575 397.58H349.082c2.545 53.282 25.193 101.385 60.568 136.76 37.569 37.569 89.447 60.742 146.679 60.742 57.32 0 109.197-23.174 146.767-60.742 35.287-35.375 58.022-83.478 60.48-136.76z m-522.286 0H107.425v-73.91l142.992-14.66C285.002 167.247 412.896 61.999 565.281 61.999c178.981 0 324.169 145.187 324.169 324.257 0 3.775-0.088 7.549-0.263 11.324h-41.783c-2.545 76.456-34.585 145.45-85.058 196.011-52.756 52.756-125.525 85.322-206.018 85.322-80.406 0-153.262-32.566-205.93-85.322-50.473-50.473-82.6-119.555-85.146-196.011h-23.963z m65.746 327.328H473.64v77.333h186.882v-77.333h152.824L916.487 962H233.214l73.822-237.092z" p-id="3185" fill="#cdcdcd"></path></svg>