<?xml version="1.0" standalone="no"?><!DOCTYPE svg PUBLIC "-//W3C//DTD SVG 1.1//EN" "http://www.w3.org/Graphics/SVG/1.1/DTD/svg11.dtd"><svg t="1605100132249" class="icon" viewBox="0 0 1251 1024" version="1.1" xmlns="http://www.w3.org/2000/svg" p-id="2474" xmlns:xlink="http://www.w3.org/1999/xlink" width="244.3359375" height="200"><defs><style type="text/css"></style></defs><path d="M970.980124 332.572444a38.855111 38.855111 0 0 0-32.540444-17.464888h-39.082667a39.196444 39.196444 0 0 0-39.082666 39.367111v236.316444a39.253333 39.253333 0 0 0 39.082666 39.367111h156.387556a39.253333 39.253333 0 0 0 39.082667-39.367111v-59.164444a39.822222 39.822222 0 0 0-6.599112-21.902223l-117.304888-177.152z m84.764445 258.218667h-156.387556V354.474667h39.310223l117.304888 177.265777v59.050667z m175.900444-104.903111L1075.200569 249.571556a116.849778 116.849778 0 0 0-97.564445-52.622223h-156.444444V118.158222A117.873778 117.873778 0 0 0 704.000569 0H117.305458A117.873778 117.873778 0 0 0 0.000569 118.158222v433.208889a117.873778 117.873778 0 0 0 117.304889 118.158222v118.158223a117.873778 117.873778 0 0 0 117.304889 118.158222h44.714666a155.420444 155.420444 0 0 0 301.511111 0h206.677334a155.420444 155.420444 0 0 0 301.511111 0h44.657778A117.873778 117.873778 0 0 0 1251.556124 787.683556V551.367111a118.897778 118.897778 0 0 0-19.854222-65.479111zM117.021013 590.791111a39.253333 39.253333 0 0 1-39.082666-39.424V118.044444a39.253333 39.253333 0 0 1 39.082666-39.424H703.716124a39.253333 39.253333 0 0 1 39.082667 39.424v433.322667a39.253333 39.253333 0 0 1-39.082667 39.424H117.077902z m312.888889 354.588445a78.791111 78.791111 0 1 1 78.222222-78.791112 78.506667 78.506667 0 0 1-78.222222 78.791112z m508.472889 0a78.791111 78.791111 0 1 1 78.222222-78.791112 78.506667 78.506667 0 0 1-78.222222 78.791112z m234.609778-157.696a39.196444 39.196444 0 0 1-39.082667 39.367111h-44.600889a155.420444 155.420444 0 0 0-301.511111 0H580.836124a155.420444 155.420444 0 0 0-301.511111 0h-44.942222a39.253333 39.253333 0 0 1-39.082667-39.424v-118.158223h508.416a117.816889 117.816889 0 0 0 117.304889-118.101333V275.399111h156.444445a39.025778 39.025778 0 0 1 32.540444 17.521778l156.444445 236.316444a40.277333 40.277333 0 0 1 6.542222 21.845334v236.430222z m0 0" p-id="2475" fill="#dbdbdb"></path></svg>