<?xml version="1.0" standalone="no"?><!DOCTYPE svg PUBLIC "-//W3C//DTD SVG 1.1//EN" "http://www.w3.org/Graphics/SVG/1.1/DTD/svg11.dtd"><svg t="1604402119350" class="icon" viewBox="0 0 1380 1024" version="1.1" xmlns="http://www.w3.org/2000/svg" p-id="3761" xmlns:xlink="http://www.w3.org/1999/xlink" width="269.53125" height="200"><defs><style type="text/css"></style></defs><path d="M767.844791 622.728349l-16.953177-14.064602c-9.422252-7.530924-224.242728-192.193315-224.242728-367.433454a241.195905 241.195905 0 0 1 482.357422 0c0 175.37769-214.786088 359.902529-224.208341 367.433454z m0-570.837186a189.373517 189.373517 0 0 0-189.373517 189.33913c0 126.271937 140.370927 267.571334 189.373517 313.719738 48.968202-45.219934 189.339129-187.447801 189.339129-313.719738a189.339129 189.339129 0 0 0-189.339129-189.33913z" fill="#bfbfbf" p-id="3762"></path><path d="M767.844791 366.470596a125.309079 125.309079 0 1 1 125.274691-125.309079c-0.92847 68.775565-56.499126 125.309079-125.274691 125.309079z m0-198.761382a73.486691 73.486691 0 1 0 73.48669 73.452303 73.555466 73.555466 0 0 0-73.48669-73.452303zM1378.95007 719.770671a38.204826 38.204826 0 0 0-21.354813-25.412571l-256.15459-118.397134c-0.275102 0-0.275102-0.275102-0.584593-0.275103-0.859695-0.275102-1.444287-0.550205-2.338369-0.825306-0.275102-0.275102-0.859695-0.275102-1.169184-0.550205-0.859695-0.275102-1.753777-0.550205-2.922962-0.825307-0.275102 0-0.584592-0.275102-0.859694-0.275102a13.548786 13.548786 0 0 0-3.232452-0.550205h-0.584592a15.096236 15.096236 0 0 0-3.438778-0.275102h-4.676739a44.050749 44.050749 0 0 0-12.001336 2.200818l-332.151589 113.789172-147.661137-71.4922a42.090646 42.090646 0 0 0-36.244723-0.275102L22.042568 865.471705C3.060513 874.481304-5.158167 895.767341 3.438778 913.786539A39.167684 39.167684 0 0 0 32.56523 935.347678l234.627838-114.2706 35.419416 25.034305 200.583934 153.885326a41.953094 41.953094 0 0 0 40.130542 5.74276l313.444636-117.365501 240.370598 130.467246a44.085137 44.085137 0 0 0 20.15124 5.158167 41.953094 41.953094 0 0 0 31.292882-13.755113l223.107932-258.699286a37.826561 37.826561 0 0 0 7.255822-31.774311zM515.816734 935.347678l-152.2691-124.414996-26.547368-24.071448 223.520585-108.940494 59.834742 23.590019 64.752194 31.946249-8.046741 9.594192 0.550204 0.275102-5.261331 5.364494z m90.199153-7.358985l-6.877556 2.751022 0.550204-0.756531-11.691846 3.645105 155.398389-193.637602 265.783169-85.212924L865.23099 825.306775z m519.77133 36.622988l-203.885162-127.234794 143.809706-177.647284 22.317671-32.87472 228.506813 101.650285z" fill="#bfbfbf" p-id="3763"></path></svg>