<?xml version="1.0" standalone="no"?><!DOCTYPE svg PUBLIC "-//W3C//DTD SVG 1.1//EN" "http://www.w3.org/Graphics/SVG/1.1/DTD/svg11.dtd"><svg t="1604402186973" class="icon" viewBox="0 0 1117 1024" version="1.1" xmlns="http://www.w3.org/2000/svg" p-id="5340" xmlns:xlink="http://www.w3.org/1999/xlink" width="218.1640625" height="200"><defs><style type="text/css"></style></defs><path d="M869.236364 472.808727h108.032v60.509091h-108.032v-60.509091z m-302.638546 288.023273h60.509091v108.032h-60.509091v-108.032zM876.916364 265.774545l-76.427637 76.381091-42.821818-42.821818 76.427636-76.334545 42.821819 42.775272z m-42.821819 517.306182l-76.38109-76.381091 42.821818-42.821818 76.334545 76.427637-42.775273 42.821818zM424.215273 666.530909L558.545455 512V232.727273h93.090909v325.818182c-6.376727 6.376727-162.443636 172.869818-162.443637 172.869818L424.215273 666.530909zM621.847273 0.698182C894.929455 0.698182 1117.090909 222.859636 1117.090909 495.895273c0 273.035636-222.161455 495.197091-495.197091 495.197091-256.558545 0-468.107636-196.235636-492.683636-446.417455l-67.118546 67.025455L0.558545 550.167273l170.542546-170.123637 170.123636 170.123637-61.579636 61.579636-62.091636-61.300364c26.763636 199.307636 197.818182 353.559273 404.293818 353.559273 225.047273 0 408.110545-183.109818 408.110545-408.110545 0-225.047273-183.063273-408.157091-408.110545-408.157091V0.698182z" p-id="5341" fill="#bfbfbf"></path></svg>